<?xml version="1.0" standalone="no"?>
<!DOCTYPE svg PUBLIC "-//W3C//DTD SVG 20010904//EN"
 "http://www.w3.org/TR/2001/REC-SVG-20010904/DTD/svg10.dtd">
<svg version="1.0" xmlns="http://www.w3.org/2000/svg"
 width="512.000000pt" height="512.000000pt" viewBox="0 0 512.000000 512.000000"
 preserveAspectRatio="xMidYMid meet">

<g transform="translate(0.000000,512.000000) scale(0.100000,-0.100000)"
fill="#000000" stroke="none">
<path d="M2315 5109 c-800 -83 -1501 -518 -1927 -1196 -487 -774 -516 -1777
-75 -2578 117 -213 253 -395 430 -573 210 -213 421 -365 692 -498 260 -127
509 -203 810 -246 119 -17 512 -16 635 1 621 86 1148 360 1571 818 350 380
573 863 651 1408 17 118 17 512 0 630 -59 416 -191 769 -410 1099 -92 140
-185 254 -315 385 -399 404 -893 653 -1462 737 -123 18 -478 26 -600 13z
m1116 -619 c335 -34 587 -164 693 -360 84 -154 78 -382 -15 -605 -102 -245
-367 -513 -633 -639 -351 -167 -860 -216 -1102 -106 -122 55 -212 137 -240
220 -28 81 6 91 78 24 118 -110 313 -153 548 -120 366 51 696 214 919 452 223
238 291 515 163 665 -154 180 -584 215 -1037 84 -140 -41 -269 -91 -431 -169
-748 -361 -1128 -784 -1040 -1160 42 -179 155 -306 521 -586 61 -47 149 -122
197 -168 l87 -84 63 16 c159 39 399 47 544 17 308 -64 528 -303 512 -555 -7
-99 -37 -164 -109 -230 -59 -55 -136 -93 -164 -83 -26 10 -17 24 42 69 81 61
117 123 121 207 10 186 -148 350 -398 411 -111 27 -292 36 -399 21 -117 -17
-112 -12 -89 -84 41 -133 40 -330 -3 -487 -94 -347 -432 -611 -779 -610 -87 1
-188 18 -226 38 -39 21 -103 103 -126 161 -17 44 -22 77 -22 156 -1 157 45
269 163 397 125 135 394 325 625 440 l48 25 -43 35 c-24 19 -129 95 -234 168
-391 274 -555 427 -658 618 -99 185 -96 333 13 558 186 385 652 762 1275 1034
448 195 791 264 1136 230z"/>
<path d="M1945 1649 c-319 -182 -513 -400 -541 -606 -7 -59 12 -114 50 -139
21 -13 42 -16 99 -12 216 15 447 237 508 488 23 95 12 307 -17 317 -5 2 -50
-20 -99 -48z"/>
</g>
</svg>
