<?xml version="1.0" ?><svg xmlns="http://www.w3.org/2000/svg" xmlns:xlink="http://www.w3.org/1999/xlink" version="1.1" id="Layer_1" viewBox="0 0 32 32" style="enable-background:new 0 0 32 32;" xml:space="preserve"><style type="text/css">
	.st0{fill:none;stroke:white;stroke-linecap:round;stroke-linejoin:round;stroke-miterlimit:10;}
</style><g><g><g><path class="st0" d="M24,17.8l3.5-3.5c0.5-0.5,0.5-1.3,0-1.8l0,0c-0.5-0.5-1.3-0.5-1.8,0l-6.9,6.9l0,0c-0.7,0.7-1.1,1.6-1.1,2.6     v4.8c0,0.5,0.4,0.9,0.9,0.9h6.3c0.5,0,0.9-0.4,0.9-0.9v-5.1c0-1,0.4-1.9,1.1-2.6L30,16c0.7-0.7,1.1-1.7,1.1-2.7l-0.2-6.2     c0-0.7-0.6-1.3-1.4-1.3l0,0c-0.8,0-1.4,0.7-1.4,1.4l-0.2,6"/><line class="st0" x1="17.7" y1="24.3" x2="25.7" y2="24.3"/></g><g><path class="st0" d="M8,17.8l-3.5-3.5C4,13.8,4,13,4.5,12.5l0,0C5,12,5.8,12,6.3,12.5l6.9,6.9l0,0c0.7,0.7,1.1,1.6,1.1,2.6v4.8     c0,0.5-0.4,0.9-0.9,0.9H7.1c-0.5,0-0.9-0.4-0.9-0.9v-5.1c0-1-0.4-1.9-1.1-2.6l-3-3.1C1.3,15.2,1,14.3,1,13.3l0.2-6.2     c0-0.7,0.6-1.3,1.4-1.3l0,0C3.4,5.8,4,6.5,4,7.2l0.2,6"/><line class="st0" x1="14.3" y1="24.3" x2="6.3" y2="24.3"/></g></g><g><circle class="st0" cx="16" cy="10.5" r="6.2"/><g><g><path class="st0" d="M17.7,8.3h-1.3h-0.9c-0.6,0-1.1,0.5-1.1,1.1l0,0c0,0.6,0.5,1.1,1.1,1.1h1.1"/><path class="st0" d="M16.5,10.5c0.6,0,1.1,0.5,1.1,1.1l0,0c0,0.6-0.5,1.1-1.1,1.1h-2.2"/></g><line class="st0" x1="16.3" y1="7" x2="16.3" y2="8.3"/><line class="st0" x1="16.3" y1="12.8" x2="16.3" y2="14.1"/></g></g></g></svg>