<?xml version="1.0" ?><svg height="100%" id="svg11" style="fill-rule:evenodd;clip-rule:evenodd;stroke-linejoin:round;stroke-miterlimit:2;" version="1.1" viewBox="0 0 64 64" width="100%" xml:space="preserve" xmlns="http://www.w3.org/2000/svg" xmlns:cc="http://creativecommons.org/ns#" xmlns:dc="http://purl.org/dc/elements/1.1/" xmlns:inkscape="http://www.inkscape.org/namespaces/inkscape" xmlns:rdf="http://www.w3.org/1999/02/22-rdf-syntax-ns#" xmlns:sodipodi="http://sodipodi.sourceforge.net/DTD/sodipodi-0.dtd" xmlns:svg="http://www.w3.org/2000/svg"><defs id="defs15"/><path d="m 14.000443,13.00044 c 0,-0.552001 -0.448001,-1.000003 -1.000003,-1.000003 H 5.0004155 c -0.5520017,0 -1.0000031,0.448002 -1.0000031,1.000003 0,0 -0.003,9.68403 3.8200118,19.36706 3.8800118,9.830031 11.6590358,19.633061 27.1800848,19.633061 0.552001,0 1.000003,-0.448001 1.000003,-1.000003 V 37.033515 c 7.504023,0.495001 13.507041,6.51702 13.971043,14.029043 0.033,0.527002 0.470001,0.938003 0.998003,0.938003 h 8.031025 c 0.552002,0 1.000003,-0.448001 1.000003,-1.000003 0,-7.889024 -3.981012,-14.857046 -10.041031,-19.000059 6.060019,-4.143013 10.041031,-11.111034 10.041031,-19.000059 0,-0.552001 -0.448001,-1.000003 -1.000003,-1.000003 h -8.031025 c -0.528002,0 -0.965003,0.411001 -0.998003,0.938003 -0.464002,7.512023 -6.46702,13.534042 -13.971043,14.029044 0,0 0,-13.967044 0,-13.967044 0,-0.552001 -0.448002,-1.000003 -1.000003,-1.000003 h -8.000025 c -0.552002,0 -1.000003,0.448002 -1.000003,1.000003 V 37.699517 C 24.388476,37.143515 21.349466,35.664511 18.747458,31.947499 16.13945,28.221487 14.000443,22.314469 14.000443,13.00044 Z m -1.992006,1.000003 c 0.192001,11.759037 3.768012,18.190057 7.285023,21.707068 3.774012,3.774011 7.566023,4.283013 7.566023,4.283013 0.287001,0.041 0.577002,-0.045 0.796003,-0.235001 0.219,-0.189 0.345001,-0.465001 0.345001,-0.755002 V 14.000443 c 0,0 6.000018,0 6.000018,0 0,0 0,14.000044 0,14.000044 0,0.552001 0.448002,1.000003 1.000004,1.000003 8.706026,0 15.892049,-6.55902 16.883052,-15.000047 0,0 6.094019,0 6.094019,0 -0.344001,7.311023 -4.434014,13.650043 -10.391032,17.137054 -0.307001,0.179 -0.495002,0.508001 -0.495002,0.863002 0,0.355001 0.188001,0.684002 0.495002,0.863003 5.957018,3.487011 10.047031,9.82603 10.391032,17.137053 0,0 -6.094019,0 -6.094019,0 -0.991003,-8.441026 -8.177026,-15.000047 -16.883052,-15.000047 -0.552002,0 -1.000004,0.448002 -1.000004,1.000004 V 49.985555 C 20.186463,49.572554 13.216441,40.590526 9.68043,31.633498 6.7224208,24.139475 6.142419,16.645452 6.0284187,14.000443 Z" id="path4" style="stroke-width:1;fill:white"/></svg>