<?xml version="1.0" ?><svg height="100%" id="svg15" style="fill-rule:evenodd;clip-rule:evenodd;stroke-linejoin:round;stroke-miterlimit:2;" version="1.1" viewBox="0 0 64 64" width="100%" xml:space="preserve" xmlns="http://www.w3.org/2000/svg" xmlns:cc="http://creativecommons.org/ns#" xmlns:dc="http://purl.org/dc/elements/1.1/" xmlns:inkscape="http://www.inkscape.org/namespaces/inkscape" xmlns:rdf="http://www.w3.org/1999/02/22-rdf-syntax-ns#" xmlns:sodipodi="http://sodipodi.sourceforge.net/DTD/sodipodi-0.dtd" xmlns:svg="http://www.w3.org/2000/svg"><defs id="defs19"/><path d="m 60.001379,20.000165 c 0,-4.966682 -4.033812,-9.000028 -9.000028,-9.000028 0,0 -38.001718,0 -38.001718,0 -4.9662156,0 -9.0000281,4.033346 -9.0000281,9.000028 0,0 0,24.000075 0,24.000075 0,4.966682 4.0338125,9.000028 9.0000281,9.000028 0,0 38.001718,0 38.001718,0 4.966216,0 9.000028,-4.033346 9.000028,-9.000028 0,0 0,-24.000075 0,-24.000075 z m -2.001606,0 V 44.00024 c 0,3.864012 -3.13561,7.000022 -6.998422,7.000022 H 12.999633 c -3.8628121,0 -6.9984219,-3.13601 -6.9984219,-7.000022 V 20.000165 c 0,-3.864012 3.1356098,-7.000022 6.9984219,-7.000022 h 38.001718 c 3.862812,0 6.998422,3.13601 6.998422,7.000022 z" id="path4" style="stroke-width:10;fill:white"/><path d="m 41.447634,32.894031 c 0.339159,-0.168858 0.553265,-0.515144 0.553265,-0.894003 0,-0.378858 -0.214106,-0.725144 -0.553265,-0.894002 L 23.447576,22.106003 c -0.309791,-0.155144 -0.678318,-0.138858 -0.972951,0.04371 -0.294632,0.181715 -0.474633,0.504001 -0.474633,0.850288 v 18.000047 c 0,0.346286 0.180001,0.668573 0.474633,0.850288 0.294633,0.182572 0.66316,0.198857 0.972951,0.04371 z m -2.682956,-0.894003 -14.763837,7.381734 c 0,0 0,-14.763467 0,-14.763467 z" id="path8" style="stroke-width:0.90113;fill:white" /></svg>